<svg width="27" height="24" viewBox="0 0 27 24" fill="none" xmlns="http://www.w3.org/2000/svg">
<path fill-rule="evenodd" clip-rule="evenodd" d="M0 1.2C0 0.537258 0.522334 0 1.16667 0H3.20833C3.74368 0 4.21033 0.374757 4.34017 0.908957L4.99424 3.6H25.0833C25.4426 3.6 25.7818 3.77025 26.0029 4.06151C26.224 4.35277 26.3023 4.73255 26.2152 5.09104L23.2985 17.091C23.1687 17.6252 22.702 18 22.1667 18H7C6.46465 18 5.99801 17.6252 5.86817 17.091L2.29743 2.4H1.16667C0.522334 2.4 0 1.86274 0 1.2ZM5.57757 6L7.91091 15.6H21.2558L23.5891 6H5.57757Z" fill="white"/>
<path fill-rule="evenodd" clip-rule="evenodd" d="M6.99998 20.4C6.67781 20.4 6.41665 20.6686 6.41665 21C6.41665 21.3314 6.67781 21.6 6.99998 21.6C7.32215 21.6 7.58331 21.3314 7.58331 21C7.58331 20.6686 7.32215 20.4 6.99998 20.4ZM4.08331 21C4.08331 19.3431 5.38915 18 6.99998 18C8.61081 18 9.91665 19.3431 9.91665 21C9.91665 22.6569 8.61081 24 6.99998 24C5.38915 24 4.08331 22.6569 4.08331 21Z" fill="white"/>
<path fill-rule="evenodd" clip-rule="evenodd" d="M22.1667 20.4C21.8445 20.4 21.5833 20.6686 21.5833 21C21.5833 21.3314 21.8445 21.6 22.1667 21.6C22.4888 21.6 22.75 21.3314 22.75 21C22.75 20.6686 22.4888 20.4 22.1667 20.4ZM19.25 21C19.25 19.3431 20.5558 18 22.1667 18C23.7775 18 25.0833 19.3431 25.0833 21C25.0833 22.6569 23.7775 24 22.1667 24C20.5558 24 19.25 22.6569 19.25 21Z" fill="white"/>
</svg>
