<svg width="42" height="66" viewBox="0 0 42 66" fill="none" xmlns="http://www.w3.org/2000/svg">
<path d="M5.61745 10.653C6.05079 10.653 6.38012 10.705 6.60545 10.809C6.83079 10.9043 7.03012 11.0127 7.20345 11.134C7.30745 11.1947 7.38979 11.2423 7.45045 11.277C7.51979 11.303 7.58479 11.316 7.64545 11.316C7.73212 11.316 7.79279 11.2683 7.82745 11.173C7.87079 11.0777 7.90545 10.9347 7.93145 10.744H8.23045C8.22179 10.8913 8.20879 11.069 8.19145 11.277C8.18279 11.4763 8.17412 11.745 8.16545 12.083C8.16545 12.4123 8.16545 12.85 8.16545 13.396H7.86645C7.84045 12.98 7.74945 12.5813 7.59345 12.2C7.43745 11.8187 7.20779 11.5067 6.90445 11.264C6.60979 11.0213 6.21979 10.9 5.73445 10.9C5.27512 10.9 4.89379 11.0387 4.59045 11.316C4.29579 11.5933 4.14845 11.9573 4.14845 12.408C4.14845 12.798 4.24812 13.1273 4.44745 13.396C4.64679 13.656 4.91112 13.8943 5.24045 14.111C5.57845 14.319 5.94245 14.5443 6.33245 14.787C6.78312 15.0643 7.18179 15.3417 7.52845 15.619C7.88379 15.8877 8.16112 16.1867 8.36045 16.516C8.56845 16.8453 8.67245 17.244 8.67245 17.712C8.67245 18.2667 8.54679 18.726 8.29545 19.09C8.04412 19.454 7.71045 19.727 7.29445 19.909C6.87845 20.091 6.41912 20.182 5.91645 20.182C5.45712 20.182 5.09312 20.13 4.82445 20.026C4.55579 19.922 4.32612 19.8137 4.13545 19.701C3.94479 19.5797 3.79745 19.519 3.69345 19.519C3.60679 19.519 3.54179 19.5667 3.49845 19.662C3.46379 19.7573 3.43345 19.9003 3.40745 20.091H3.10845C3.12579 19.909 3.13445 19.6967 3.13445 19.454C3.14312 19.2027 3.14745 18.8777 3.14745 18.479C3.15612 18.0803 3.16045 17.5777 3.16045 16.971H3.45945C3.49412 17.491 3.58945 17.9763 3.74545 18.427C3.91012 18.8777 4.15712 19.2417 4.48645 19.519C4.82445 19.7877 5.27079 19.922 5.82545 19.922C6.11145 19.922 6.38012 19.8657 6.63145 19.753C6.89145 19.6317 7.10379 19.4453 7.26845 19.194C7.43312 18.934 7.51545 18.6003 7.51545 18.193C7.51545 17.8377 7.42879 17.53 7.25545 17.27C7.09079 17.0013 6.85679 16.7543 6.55345 16.529C6.25012 16.295 5.89479 16.0567 5.48745 15.814C5.08012 15.5627 4.69879 15.307 4.34345 15.047C3.98812 14.787 3.70212 14.488 3.48545 14.15C3.27745 13.8033 3.17345 13.3873 3.17345 12.902C3.17345 12.3907 3.28612 11.9703 3.51145 11.641C3.74545 11.303 4.04879 11.056 4.42145 10.9C4.79412 10.7353 5.19279 10.653 5.61745 10.653ZM19.606 10.796C19.5713 11.1253 19.5453 11.446 19.528 11.758C19.5193 12.0613 19.515 12.2953 19.515 12.46C19.515 12.668 19.5193 12.863 19.528 13.045C19.5366 13.227 19.5453 13.3873 19.554 13.526H19.255C19.1943 12.9193 19.112 12.4427 19.008 12.096C18.904 11.7407 18.722 11.485 18.462 11.329C18.202 11.173 17.799 11.095 17.253 11.095H16.551V18.492C16.551 18.8387 16.5813 19.0987 16.642 19.272C16.7113 19.4453 16.8413 19.5623 17.032 19.623C17.2226 19.6837 17.5 19.7227 17.864 19.74V20C17.6386 19.9827 17.3526 19.974 17.006 19.974C16.6593 19.9653 16.3083 19.961 15.953 19.961C15.563 19.961 15.1946 19.9653 14.848 19.974C14.51 19.974 14.237 19.9827 14.029 20V19.74C14.393 19.7227 14.6703 19.6837 14.861 19.623C15.0516 19.5623 15.1773 19.4453 15.238 19.272C15.3073 19.0987 15.342 18.8387 15.342 18.492V11.095H14.64C14.1026 11.095 13.6996 11.173 13.431 11.329C13.171 11.485 12.989 11.7407 12.885 12.096C12.781 12.4427 12.6986 12.9193 12.638 13.526H12.339C12.3563 13.3873 12.365 13.227 12.365 13.045C12.3736 12.863 12.378 12.668 12.378 12.46C12.378 12.2953 12.3693 12.0613 12.352 11.758C12.3433 11.446 12.3216 11.1253 12.287 10.796C12.651 10.8047 13.0453 10.8133 13.47 10.822C13.9033 10.8307 14.3366 10.835 14.77 10.835C15.2033 10.835 15.5976 10.835 15.953 10.835C16.3083 10.835 16.6983 10.835 17.123 10.835C17.5563 10.835 17.9896 10.8307 18.423 10.822C18.8563 10.8133 19.2506 10.8047 19.606 10.796ZM29.6172 10.796C29.5825 11.0993 29.5565 11.394 29.5392 11.68C29.5305 11.966 29.5262 12.1827 29.5262 12.33C29.5262 12.486 29.5305 12.6377 29.5392 12.785C29.5478 12.9237 29.5565 13.0407 29.5652 13.136H29.2662C29.2142 12.6247 29.1405 12.2217 29.0452 11.927C28.9498 11.6237 28.7852 11.4113 28.5512 11.29C28.3258 11.16 27.9835 11.095 27.5242 11.095H26.4452C26.1505 11.095 25.9252 11.121 25.7692 11.173C25.6218 11.2163 25.5222 11.316 25.4702 11.472C25.4182 11.6193 25.3922 11.8533 25.3922 12.174V18.622C25.3922 18.934 25.4182 19.168 25.4702 19.324C25.5222 19.48 25.6218 19.584 25.7692 19.636C25.9252 19.6793 26.1505 19.701 26.4452 19.701H27.3942C27.9402 19.701 28.3518 19.6273 28.6292 19.48C28.9152 19.3327 29.1188 19.0943 29.2402 18.765C29.3702 18.427 29.4655 17.972 29.5262 17.4H29.8252C29.7992 17.634 29.7862 17.946 29.7862 18.336C29.7862 18.5007 29.7905 18.739 29.7992 19.051C29.8165 19.3543 29.8425 19.6707 29.8772 20C29.4352 19.9827 28.9368 19.974 28.3822 19.974C27.8275 19.9653 27.3335 19.961 26.9002 19.961C26.7095 19.961 26.4625 19.961 26.1592 19.961C25.8645 19.961 25.5438 19.9653 25.1972 19.974C24.8505 19.974 24.4995 19.9783 24.1442 19.987C23.7888 19.987 23.4508 19.9913 23.1302 20V19.74C23.4248 19.7227 23.6458 19.688 23.7932 19.636C23.9492 19.584 24.0532 19.48 24.1052 19.324C24.1572 19.168 24.1832 18.934 24.1832 18.622V12.174C24.1832 11.8533 24.1572 11.6193 24.1052 11.472C24.0532 11.316 23.9492 11.212 23.7932 11.16C23.6458 11.0993 23.4248 11.0647 23.1302 11.056V10.796C23.4508 10.8047 23.7888 10.8133 24.1442 10.822C24.4995 10.822 24.8505 10.8263 25.1972 10.835C25.5438 10.835 25.8645 10.835 26.1592 10.835C26.4625 10.835 26.7095 10.835 26.9002 10.835C27.2988 10.835 27.7495 10.835 28.2522 10.835C28.7635 10.8263 29.2185 10.8133 29.6172 10.796ZM27.3812 15.242C27.3812 15.242 27.3812 15.2853 27.3812 15.372C27.3812 15.4587 27.3812 15.502 27.3812 15.502H25.0022C25.0022 15.502 25.0022 15.4587 25.0022 15.372C25.0022 15.2853 25.0022 15.242 25.0022 15.242H27.3812ZM27.7582 13.526C27.7235 14.02 27.7062 14.397 27.7062 14.657C27.7148 14.917 27.7192 15.1553 27.7192 15.372C27.7192 15.5887 27.7235 15.827 27.7322 16.087C27.7408 16.347 27.7625 16.724 27.7972 17.218H27.4982C27.4635 16.9407 27.4202 16.672 27.3682 16.412C27.3248 16.1433 27.2208 15.9267 27.0562 15.762C26.9002 15.5887 26.6315 15.502 26.2502 15.502V15.242C26.5362 15.242 26.7528 15.1857 26.9002 15.073C27.0562 14.9517 27.1688 14.8 27.2382 14.618C27.3075 14.436 27.3552 14.2497 27.3812 14.059C27.4072 13.8597 27.4332 13.682 27.4592 13.526H27.7582ZM33.6521 10.796C33.8341 10.8047 34.0724 10.8133 34.3671 10.822C34.6617 10.8307 34.9521 10.835 35.2381 10.835C35.6454 10.835 36.0354 10.8307 36.4081 10.822C36.7807 10.8133 37.0451 10.809 37.2011 10.809C38.2497 10.809 39.0341 11.0473 39.5541 11.524C40.0741 12.0007 40.3341 12.616 40.3341 13.37C40.3341 13.682 40.2821 14.0113 40.1781 14.358C40.0741 14.696 39.8921 15.0123 39.6321 15.307C39.3807 15.593 39.0341 15.827 38.5921 16.009C38.1501 16.191 37.5911 16.282 36.9151 16.282H35.6671V16.022H36.7851C37.4004 16.022 37.8684 15.905 38.1891 15.671C38.5184 15.437 38.7394 15.1293 38.8521 14.748C38.9734 14.3667 39.0341 13.955 39.0341 13.513C39.0341 12.6897 38.8694 12.0743 38.5401 11.667C38.2194 11.2597 37.6647 11.056 36.8761 11.056C36.4774 11.056 36.2174 11.1297 36.0961 11.277C35.9747 11.4243 35.9141 11.7233 35.9141 12.174V18.622C35.9141 18.934 35.9444 19.168 36.0051 19.324C36.0744 19.48 36.2044 19.584 36.3951 19.636C36.5857 19.688 36.8631 19.7227 37.2271 19.74V20C37.0017 19.9827 36.7157 19.974 36.3691 19.974C36.0224 19.9653 35.6714 19.961 35.3161 19.961C34.9781 19.961 34.6617 19.9653 34.3671 19.974C34.0724 19.974 33.8341 19.9827 33.6521 20V19.74C33.9467 19.7227 34.1677 19.688 34.3151 19.636C34.4711 19.584 34.5751 19.48 34.6271 19.324C34.6791 19.168 34.7051 18.934 34.7051 18.622V12.174C34.7051 11.8533 34.6791 11.6193 34.6271 11.472C34.5751 11.316 34.4711 11.212 34.3151 11.16C34.1677 11.0993 33.9467 11.0647 33.6521 11.056V10.796Z" fill="#FFFDFD"/>
<path d="M0 30H42" stroke="#FFFCFC"/>
<path d="M11.9174 40.884C13.8374 40.884 15.5294 41.28 16.9934 42.072C18.4574 42.84 19.6094 43.944 20.4494 45.384C21.2894 46.8 21.7094 48.468 21.7094 50.388C21.7094 52.308 21.2774 54.036 20.4134 55.572C19.5734 57.084 18.3854 58.284 16.8494 59.172C15.3374 60.06 13.5614 60.504 11.5214 60.504C9.64938 60.504 7.96938 60.108 6.48138 59.316C5.01738 58.524 3.85338 57.42 2.98938 56.004C2.14938 54.564 1.72938 52.884 1.72938 50.964C1.72938 49.068 2.14938 47.364 2.98938 45.852C3.82938 44.316 5.01738 43.104 6.55338 42.216C8.08938 41.328 9.87738 40.884 11.9174 40.884ZM11.5934 41.532C10.2974 41.532 9.22938 42.36 8.38938 44.016C7.57338 45.648 7.16538 47.928 7.16538 50.856C7.16538 53.016 7.38138 54.756 7.81338 56.076C8.24538 57.396 8.80938 58.356 9.50538 58.956C10.2254 59.556 11.0054 59.856 11.8454 59.856C13.1414 59.856 14.1974 59.028 15.0134 57.372C15.8534 55.716 16.2734 53.424 16.2734 50.496C16.2734 48.336 16.0574 46.596 15.6254 45.276C15.1934 43.956 14.6174 43.008 13.8974 42.432C13.2014 41.832 12.4334 41.532 11.5934 41.532ZM32.1685 40.884C33.3445 40.884 34.4005 41.052 35.3365 41.388C36.2725 41.7 37.0045 42.168 37.5325 42.792C38.0605 43.392 38.3245 44.136 38.3245 45.024C38.3245 45.936 38.0245 46.788 37.4245 47.58C36.8485 48.372 36.0085 49.068 34.9045 49.668C33.8245 50.244 32.5285 50.676 31.0165 50.964C32.6485 50.892 34.1125 51.06 35.4085 51.468C36.7045 51.876 37.7245 52.5 38.4685 53.34C39.2365 54.156 39.6205 55.188 39.6205 56.436C39.6205 57.54 39.3205 58.56 38.7205 59.496C38.1445 60.432 37.3405 61.26 36.3085 61.98C35.2765 62.724 34.1005 63.348 32.7805 63.852C31.4845 64.38 30.1165 64.776 28.6765 65.04C27.2365 65.304 25.7965 65.436 24.3565 65.436V64.716C25.4845 64.692 26.6245 64.488 27.7765 64.104C28.9525 63.744 30.0205 63.216 30.9805 62.52C31.9645 61.848 32.7565 61.008 33.3565 60C33.9565 58.968 34.2565 57.792 34.2565 56.472C34.2565 55.056 33.9205 53.892 33.2485 52.98C32.5765 52.068 31.6525 51.564 30.4765 51.468C30.1165 51.636 29.7925 51.78 29.5045 51.9C29.2165 51.996 28.9285 52.044 28.6405 52.044C28.4245 52.044 28.2565 52.008 28.1365 51.936C28.0165 51.864 27.9565 51.732 27.9565 51.54C27.9565 51.252 28.0765 51.048 28.3165 50.928C28.5565 50.808 28.8205 50.748 29.1085 50.748C29.3005 50.748 29.4925 50.772 29.6845 50.82C29.9005 50.844 30.1285 50.868 30.3685 50.892C31.4005 50.172 32.1205 49.404 32.5285 48.588C32.9365 47.748 33.1405 46.908 33.1405 46.068C33.1405 44.988 32.8525 44.196 32.2765 43.692C31.7245 43.164 30.9445 42.9 29.9365 42.9C29.0005 42.9 28.1245 43.14 27.3085 43.62C26.4925 44.076 25.8085 44.772 25.2565 45.708L24.6085 45.384C25.0405 44.592 25.5805 43.86 26.2285 43.188C26.8765 42.492 27.6805 41.94 28.6405 41.532C29.6005 41.1 30.7765 40.884 32.1685 40.884Z" fill="#FFFCFC"/>
</svg>
