<svg width="43" height="61" viewBox="0 0 43 61" fill="none" xmlns="http://www.w3.org/2000/svg">
<path d="M6.61745 10.653C7.05079 10.653 7.38012 10.705 7.60545 10.809C7.83079 10.9043 8.03012 11.0127 8.20345 11.134C8.30745 11.1947 8.38979 11.2423 8.45045 11.277C8.51979 11.303 8.58479 11.316 8.64545 11.316C8.73212 11.316 8.79279 11.2683 8.82745 11.173C8.87079 11.0777 8.90545 10.9347 8.93145 10.744H9.23045C9.22179 10.8913 9.20879 11.069 9.19145 11.277C9.18279 11.4763 9.17412 11.745 9.16545 12.083C9.16545 12.4123 9.16545 12.85 9.16545 13.396H8.86645C8.84045 12.98 8.74945 12.5813 8.59345 12.2C8.43745 11.8187 8.20779 11.5067 7.90445 11.264C7.60979 11.0213 7.21979 10.9 6.73445 10.9C6.27512 10.9 5.89379 11.0387 5.59045 11.316C5.29579 11.5933 5.14845 11.9573 5.14845 12.408C5.14845 12.798 5.24812 13.1273 5.44745 13.396C5.64679 13.656 5.91112 13.8943 6.24045 14.111C6.57845 14.319 6.94245 14.5443 7.33245 14.787C7.78312 15.0643 8.18179 15.3417 8.52845 15.619C8.88379 15.8877 9.16112 16.1867 9.36045 16.516C9.56845 16.8453 9.67245 17.244 9.67245 17.712C9.67245 18.2667 9.54679 18.726 9.29545 19.09C9.04412 19.454 8.71045 19.727 8.29445 19.909C7.87845 20.091 7.41912 20.182 6.91645 20.182C6.45712 20.182 6.09312 20.13 5.82445 20.026C5.55579 19.922 5.32612 19.8137 5.13545 19.701C4.94479 19.5797 4.79745 19.519 4.69345 19.519C4.60679 19.519 4.54179 19.5667 4.49845 19.662C4.46379 19.7573 4.43345 19.9003 4.40745 20.091H4.10845C4.12579 19.909 4.13445 19.6967 4.13445 19.454C4.14312 19.2027 4.14745 18.8777 4.14745 18.479C4.15612 18.0803 4.16045 17.5777 4.16045 16.971H4.45945C4.49412 17.491 4.58945 17.9763 4.74545 18.427C4.91012 18.8777 5.15712 19.2417 5.48645 19.519C5.82445 19.7877 6.27079 19.922 6.82545 19.922C7.11145 19.922 7.38012 19.8657 7.63145 19.753C7.89145 19.6317 8.10379 19.4453 8.26845 19.194C8.43312 18.934 8.51545 18.6003 8.51545 18.193C8.51545 17.8377 8.42879 17.53 8.25545 17.27C8.09079 17.0013 7.85679 16.7543 7.55345 16.529C7.25012 16.295 6.89479 16.0567 6.48745 15.814C6.08012 15.5627 5.69879 15.307 5.34345 15.047C4.98812 14.787 4.70212 14.488 4.48545 14.15C4.27745 13.8033 4.17345 13.3873 4.17345 12.902C4.17345 12.3907 4.28612 11.9703 4.51145 11.641C4.74545 11.303 5.04879 11.056 5.42145 10.9C5.79412 10.7353 6.19279 10.653 6.61745 10.653ZM20.606 10.796C20.5713 11.1253 20.5453 11.446 20.528 11.758C20.5193 12.0613 20.515 12.2953 20.515 12.46C20.515 12.668 20.5193 12.863 20.528 13.045C20.5366 13.227 20.5453 13.3873 20.554 13.526H20.255C20.1943 12.9193 20.112 12.4427 20.008 12.096C19.904 11.7407 19.722 11.485 19.462 11.329C19.202 11.173 18.799 11.095 18.253 11.095H17.551V18.492C17.551 18.8387 17.5813 19.0987 17.642 19.272C17.7113 19.4453 17.8413 19.5623 18.032 19.623C18.2226 19.6837 18.5 19.7227 18.864 19.74V20C18.6386 19.9827 18.3526 19.974 18.006 19.974C17.6593 19.9653 17.3083 19.961 16.953 19.961C16.563 19.961 16.1946 19.9653 15.848 19.974C15.51 19.974 15.237 19.9827 15.029 20V19.74C15.393 19.7227 15.6703 19.6837 15.861 19.623C16.0516 19.5623 16.1773 19.4453 16.238 19.272C16.3073 19.0987 16.342 18.8387 16.342 18.492V11.095H15.64C15.1026 11.095 14.6996 11.173 14.431 11.329C14.171 11.485 13.989 11.7407 13.885 12.096C13.781 12.4427 13.6986 12.9193 13.638 13.526H13.339C13.3563 13.3873 13.365 13.227 13.365 13.045C13.3736 12.863 13.378 12.668 13.378 12.46C13.378 12.2953 13.3693 12.0613 13.352 11.758C13.3433 11.446 13.3216 11.1253 13.287 10.796C13.651 10.8047 14.0453 10.8133 14.47 10.822C14.9033 10.8307 15.3366 10.835 15.77 10.835C16.2033 10.835 16.5976 10.835 16.953 10.835C17.3083 10.835 17.6983 10.835 18.123 10.835C18.5563 10.835 18.9896 10.8307 19.423 10.822C19.8563 10.8133 20.2506 10.8047 20.606 10.796ZM30.6172 10.796C30.5825 11.0993 30.5565 11.394 30.5392 11.68C30.5305 11.966 30.5262 12.1827 30.5262 12.33C30.5262 12.486 30.5305 12.6377 30.5392 12.785C30.5478 12.9237 30.5565 13.0407 30.5652 13.136H30.2662C30.2142 12.6247 30.1405 12.2217 30.0452 11.927C29.9498 11.6237 29.7852 11.4113 29.5512 11.29C29.3258 11.16 28.9835 11.095 28.5242 11.095H27.4452C27.1505 11.095 26.9252 11.121 26.7692 11.173C26.6218 11.2163 26.5222 11.316 26.4702 11.472C26.4182 11.6193 26.3922 11.8533 26.3922 12.174V18.622C26.3922 18.934 26.4182 19.168 26.4702 19.324C26.5222 19.48 26.6218 19.584 26.7692 19.636C26.9252 19.6793 27.1505 19.701 27.4452 19.701H28.3942C28.9402 19.701 29.3518 19.6273 29.6292 19.48C29.9152 19.3327 30.1188 19.0943 30.2402 18.765C30.3702 18.427 30.4655 17.972 30.5262 17.4H30.8252C30.7992 17.634 30.7862 17.946 30.7862 18.336C30.7862 18.5007 30.7905 18.739 30.7992 19.051C30.8165 19.3543 30.8425 19.6707 30.8772 20C30.4352 19.9827 29.9368 19.974 29.3822 19.974C28.8275 19.9653 28.3335 19.961 27.9002 19.961C27.7095 19.961 27.4625 19.961 27.1592 19.961C26.8645 19.961 26.5438 19.9653 26.1972 19.974C25.8505 19.974 25.4995 19.9783 25.1442 19.987C24.7888 19.987 24.4508 19.9913 24.1302 20V19.74C24.4248 19.7227 24.6458 19.688 24.7932 19.636C24.9492 19.584 25.0532 19.48 25.1052 19.324C25.1572 19.168 25.1832 18.934 25.1832 18.622V12.174C25.1832 11.8533 25.1572 11.6193 25.1052 11.472C25.0532 11.316 24.9492 11.212 24.7932 11.16C24.6458 11.0993 24.4248 11.0647 24.1302 11.056V10.796C24.4508 10.8047 24.7888 10.8133 25.1442 10.822C25.4995 10.822 25.8505 10.8263 26.1972 10.835C26.5438 10.835 26.8645 10.835 27.1592 10.835C27.4625 10.835 27.7095 10.835 27.9002 10.835C28.2988 10.835 28.7495 10.835 29.2522 10.835C29.7635 10.8263 30.2185 10.8133 30.6172 10.796ZM28.3812 15.242C28.3812 15.242 28.3812 15.2853 28.3812 15.372C28.3812 15.4587 28.3812 15.502 28.3812 15.502H26.0022C26.0022 15.502 26.0022 15.4587 26.0022 15.372C26.0022 15.2853 26.0022 15.242 26.0022 15.242H28.3812ZM28.7582 13.526C28.7235 14.02 28.7062 14.397 28.7062 14.657C28.7148 14.917 28.7192 15.1553 28.7192 15.372C28.7192 15.5887 28.7235 15.827 28.7322 16.087C28.7408 16.347 28.7625 16.724 28.7972 17.218H28.4982C28.4635 16.9407 28.4202 16.672 28.3682 16.412C28.3248 16.1433 28.2208 15.9267 28.0562 15.762C27.9002 15.5887 27.6315 15.502 27.2502 15.502V15.242C27.5362 15.242 27.7528 15.1857 27.9002 15.073C28.0562 14.9517 28.1688 14.8 28.2382 14.618C28.3075 14.436 28.3552 14.2497 28.3812 14.059C28.4072 13.8597 28.4332 13.682 28.4592 13.526H28.7582ZM34.6521 10.796C34.8341 10.8047 35.0724 10.8133 35.3671 10.822C35.6617 10.8307 35.9521 10.835 36.2381 10.835C36.6454 10.835 37.0354 10.8307 37.4081 10.822C37.7807 10.8133 38.0451 10.809 38.2011 10.809C39.2497 10.809 40.0341 11.0473 40.5541 11.524C41.0741 12.0007 41.3341 12.616 41.3341 13.37C41.3341 13.682 41.2821 14.0113 41.1781 14.358C41.0741 14.696 40.8921 15.0123 40.6321 15.307C40.3807 15.593 40.0341 15.827 39.5921 16.009C39.1501 16.191 38.5911 16.282 37.9151 16.282H36.6671V16.022H37.7851C38.4004 16.022 38.8684 15.905 39.1891 15.671C39.5184 15.437 39.7394 15.1293 39.8521 14.748C39.9734 14.3667 40.0341 13.955 40.0341 13.513C40.0341 12.6897 39.8694 12.0743 39.5401 11.667C39.2194 11.2597 38.6647 11.056 37.8761 11.056C37.4774 11.056 37.2174 11.1297 37.0961 11.277C36.9747 11.4243 36.9141 11.7233 36.9141 12.174V18.622C36.9141 18.934 36.9444 19.168 37.0051 19.324C37.0744 19.48 37.2044 19.584 37.3951 19.636C37.5857 19.688 37.8631 19.7227 38.2271 19.74V20C38.0017 19.9827 37.7157 19.974 37.3691 19.974C37.0224 19.9653 36.6714 19.961 36.3161 19.961C35.9781 19.961 35.6617 19.9653 35.3671 19.974C35.0724 19.974 34.8341 19.9827 34.6521 20V19.74C34.9467 19.7227 35.1677 19.688 35.3151 19.636C35.4711 19.584 35.5751 19.48 35.6271 19.324C35.6791 19.168 35.7051 18.934 35.7051 18.622V12.174C35.7051 11.8533 35.6791 11.6193 35.6271 11.472C35.5751 11.316 35.4711 11.212 35.3151 11.16C35.1677 11.0993 34.9467 11.0647 34.6521 11.056V10.796Z" fill="#FFFDFD"/>
<path d="M1 30H43" stroke="#FFFCFC"/>
<path d="M12.2846 40.884C14.2046 40.884 15.8966 41.28 17.3606 42.072C18.8246 42.84 19.9766 43.944 20.8166 45.384C21.6566 46.8 22.0766 48.468 22.0766 50.388C22.0766 52.308 21.6446 54.036 20.7806 55.572C19.9406 57.084 18.7526 58.284 17.2166 59.172C15.7046 60.06 13.9286 60.504 11.8886 60.504C10.0166 60.504 8.33656 60.108 6.84856 59.316C5.38456 58.524 4.22056 57.42 3.35656 56.004C2.51656 54.564 2.09656 52.884 2.09656 50.964C2.09656 49.068 2.51656 47.364 3.35656 45.852C4.19656 44.316 5.38456 43.104 6.92056 42.216C8.45656 41.328 10.2446 40.884 12.2846 40.884ZM11.9606 41.532C10.6646 41.532 9.59656 42.36 8.75656 44.016C7.94056 45.648 7.53256 47.928 7.53256 50.856C7.53256 53.016 7.74856 54.756 8.18056 56.076C8.61256 57.396 9.17656 58.356 9.87256 58.956C10.5926 59.556 11.3726 59.856 12.2126 59.856C13.5086 59.856 14.5646 59.028 15.3806 57.372C16.2206 55.716 16.6406 53.424 16.6406 50.496C16.6406 48.336 16.4246 46.596 15.9926 45.276C15.5606 43.956 14.9846 43.008 14.2646 42.432C13.5686 41.832 12.8006 41.532 11.9606 41.532ZM33.5797 40.884C35.4277 40.884 36.8917 41.28 37.9717 42.072C39.0517 42.864 39.5917 43.992 39.5917 45.456C39.5917 46.392 39.3517 47.244 38.8717 48.012C38.4157 48.78 37.8037 49.512 37.0357 50.208C36.2677 50.88 35.4397 51.516 34.5517 52.116C33.6877 52.716 32.8477 53.316 32.0317 53.916C31.2157 54.492 30.5197 55.092 29.9437 55.716H37.7197C38.7037 55.716 39.3277 55.596 39.5917 55.356C39.8557 55.116 40.0357 54.696 40.1317 54.096H40.8877C40.8877 55.704 40.8997 56.952 40.9237 57.84C40.9477 58.728 40.9837 59.508 41.0317 60.18C40.8157 60.132 40.4197 60.096 39.8437 60.072C39.2677 60.048 38.6077 60.024 37.8637 60C37.1197 60 36.3877 60 35.6677 60H25.1917V59.316C25.8637 58.596 26.6917 57.804 27.6757 56.94C28.6597 56.076 29.6197 55.116 30.5557 54.06C31.5157 53.004 32.3197 51.864 32.9677 50.64C33.6157 49.392 33.9397 48.06 33.9397 46.644C33.9397 45.348 33.6517 44.412 33.0757 43.836C32.4997 43.26 31.6717 42.972 30.5917 42.972C29.5597 42.972 28.6477 43.212 27.8557 43.692C27.0877 44.148 26.3917 44.832 25.7677 45.744L25.1557 45.384C25.6357 44.568 26.2357 43.824 26.9557 43.152C27.6997 42.456 28.6117 41.904 29.6917 41.496C30.7717 41.088 32.0677 40.884 33.5797 40.884Z" fill="#FFFCFC"/>
</svg>
