<svg width="21" height="21" viewBox="0 0 21 21" fill="none" xmlns="http://www.w3.org/2000/svg">
<path d="M6.825 1.75H14.175C16.975 1.75 19.25 4.025 19.25 6.825V14.175C19.25 15.521 18.7153 16.8118 17.7636 17.7636C16.8118 18.7153 15.521 19.25 14.175 19.25H6.825C4.025 19.25 1.75 16.975 1.75 14.175V6.825C1.75 5.47903 2.28469 4.18818 3.23643 3.23643C4.18818 2.28469 5.47903 1.75 6.825 1.75ZM6.65 3.5C5.81457 3.5 5.01335 3.83187 4.42261 4.42261C3.83187 5.01335 3.5 5.81457 3.5 6.65V14.35C3.5 16.0912 4.90875 17.5 6.65 17.5H14.35C15.1854 17.5 15.9866 17.1681 16.5774 16.5774C17.1681 15.9866 17.5 15.1854 17.5 14.35V6.65C17.5 4.90875 16.0912 3.5 14.35 3.5H6.65ZM15.0937 4.8125C15.3838 4.8125 15.662 4.92773 15.8671 5.13285C16.0723 5.33797 16.1875 5.61617 16.1875 5.90625C16.1875 6.19633 16.0723 6.47453 15.8671 6.67965C15.662 6.88477 15.3838 7 15.0937 7C14.8037 7 14.5255 6.88477 14.3203 6.67965C14.1152 6.47453 14 6.19633 14 5.90625C14 5.61617 14.1152 5.33797 14.3203 5.13285C14.5255 4.92773 14.8037 4.8125 15.0937 4.8125ZM10.5 6.125C11.6603 6.125 12.7731 6.58594 13.5936 7.40641C14.4141 8.22688 14.875 9.33968 14.875 10.5C14.875 11.6603 14.4141 12.7731 13.5936 13.5936C12.7731 14.4141 11.6603 14.875 10.5 14.875C9.33968 14.875 8.22688 14.4141 7.40641 13.5936C6.58594 12.7731 6.125 11.6603 6.125 10.5C6.125 9.33968 6.58594 8.22688 7.40641 7.40641C8.22688 6.58594 9.33968 6.125 10.5 6.125ZM10.5 7.875C9.80381 7.875 9.13613 8.15156 8.64384 8.64384C8.15156 9.13613 7.875 9.80381 7.875 10.5C7.875 11.1962 8.15156 11.8639 8.64384 12.3562C9.13613 12.8484 9.80381 13.125 10.5 13.125C11.1962 13.125 11.8639 12.8484 12.3562 12.3562C12.8484 11.8639 13.125 11.1962 13.125 10.5C13.125 9.80381 12.8484 9.13613 12.3562 8.64384C11.8639 8.15156 11.1962 7.875 10.5 7.875Z" fill="white"/>
</svg>
