<svg width="206" height="50" viewBox="0 0 206 50" fill="none" xmlns="http://www.w3.org/2000/svg">
<path d="M204.719 29.35C204.719 42.3 197.619 48.775 183.419 48.775C169.219 48.775 162.119 42.3 162.119 29.35V1.72186H172.394V29.0219C172.394 32.8281 173.219 35.6937 174.869 37.6187C176.569 39.5438 179.419 40.5063 183.419 40.5063C187.419 40.5063 190.244 39.5438 191.894 37.6187C193.594 35.6937 194.444 32.8281 194.444 29.0219V1.72186H204.719V29.35Z" fill="white" stroke="white" stroke-linejoin="round"/>
<path d="M107.45 48.0531H97.3246V1.72186H108.95L124.775 30.2687L140.525 1.72186H152.225V48.0531H142.1V17.8656L128.3 42.1469H121.25L107.45 17.8656V48.0531Z" fill="white" stroke="white" stroke-linejoin="round"/>
<path d="M91.4752 48.0531H80.7502L77.0002 38.2094H56.6752L52.9252 48.0531H42.2002L61.0252 1.72186H72.7252L91.4752 48.0531ZM73.9252 30.2687L66.8002 11.0406L59.7502 30.2687H73.9252Z" fill="white" stroke="white" stroke-linejoin="round"/>
<path d="M21.175 48.775C16.225 48.775 11.975 47.9875 8.425 46.4125C4.925 44.7938 2.45 42.5625 1 39.7188L9.025 34.8625C11.275 38.8438 15.2 40.8344 20.8 40.8344C26.5 40.8344 29.35 38.9094 29.35 35.0594C29.35 33.3531 28.65 32.1063 27.25 31.3188C25.85 30.4875 23.275 29.7219 19.525 29.0219C16.975 28.5406 14.775 27.9938 12.925 27.3813C11.125 26.7688 9.375 25.9375 7.675 24.8875C6.025 23.8375 4.775 22.4813 3.925 20.8188C3.075 19.1563 2.65 17.1875 2.65 14.9125C2.65 10.5813 4.275 7.19062 7.525 4.74062C10.825 2.24688 15.075 1 20.275 1C24.725 1 28.55 1.80937 31.75 3.42813C34.95 5.04688 37.175 7.19063 38.425 9.85938L30.175 14.3875C28.175 10.7563 25 8.94063 20.65 8.94063C18.35 8.94063 16.525 9.44375 15.175 10.45C13.825 11.4563 13.15 12.8781 13.15 14.7156C13.15 16.7719 13.875 18.1938 15.325 18.9813C16.825 19.7688 19.65 20.5125 23.8 21.2125C28.85 22.0438 32.775 23.4875 35.575 25.5438C38.425 27.6 39.85 30.6625 39.85 34.7313C39.85 39.2375 38.2 42.7156 34.9 45.1656C31.6 47.5719 27.025 48.775 21.175 48.775Z" fill="white" stroke="white" stroke-linejoin="round"/>
</svg>
