<svg width="163" height="59" viewBox="0 0 163 59" fill="none" xmlns="http://www.w3.org/2000/svg">
<g filter="url(#filter0_d_8_26)">
<rect x="5" y="1" width="152.815" height="48.5581" rx="8" fill="#500E00"/>
</g>
<path d="M20.9779 11.9791H24.0128L24.7715 16.5315M24.7715 16.5315L27.0477 30.1884H43.7395L48.2919 16.5315H24.7715Z" stroke="white" stroke-width="2" stroke-linecap="round" stroke-linejoin="round"/>
<path d="M28.5652 39.2931C29.4032 39.2931 30.0826 38.6137 30.0826 37.7756C30.0826 36.9376 29.4032 36.2582 28.5652 36.2582C27.7271 36.2582 27.0477 36.9376 27.0477 37.7756C27.0477 38.6137 27.7271 39.2931 28.5652 39.2931Z" stroke="white" stroke-width="2" stroke-linecap="round" stroke-linejoin="round"/>
<path d="M42.222 39.2931C43.0601 39.2931 43.7395 38.6137 43.7395 37.7756C43.7395 36.9376 43.0601 36.2582 42.222 36.2582C41.384 36.2582 40.7046 36.9376 40.7046 37.7756C40.7046 38.6137 41.384 39.2931 42.222 39.2931Z" stroke="white" stroke-width="2" stroke-linecap="round" stroke-linejoin="round"/>
<path d="M80.562 17.744C81.362 17.744 81.97 17.84 82.386 18.032C82.802 18.208 83.17 18.408 83.49 18.632C83.682 18.744 83.834 18.832 83.946 18.896C84.074 18.944 84.194 18.968 84.306 18.968C84.466 18.968 84.578 18.88 84.642 18.704C84.722 18.528 84.786 18.264 84.834 17.912H85.386C85.37 18.184 85.346 18.512 85.314 18.896C85.298 19.264 85.282 19.76 85.266 20.384C85.266 20.992 85.266 21.8 85.266 22.808H84.714C84.666 22.04 84.498 21.304 84.21 20.6C83.922 19.896 83.498 19.32 82.938 18.872C82.394 18.424 81.674 18.2 80.778 18.2C79.93 18.2 79.226 18.456 78.666 18.968C78.122 19.48 77.85 20.152 77.85 20.984C77.85 21.704 78.034 22.312 78.402 22.808C78.77 23.288 79.258 23.728 79.866 24.128C80.49 24.512 81.162 24.928 81.882 25.376C82.714 25.888 83.45 26.4 84.09 26.912C84.746 27.408 85.258 27.96 85.626 28.568C86.01 29.176 86.202 29.912 86.202 30.776C86.202 31.8 85.97 32.648 85.506 33.32C85.042 33.992 84.426 34.496 83.658 34.832C82.89 35.168 82.042 35.336 81.114 35.336C80.266 35.336 79.594 35.24 79.098 35.048C78.602 34.856 78.178 34.656 77.826 34.448C77.474 34.224 77.202 34.112 77.01 34.112C76.85 34.112 76.73 34.2 76.65 34.376C76.586 34.552 76.53 34.816 76.482 35.168H75.93C75.962 34.832 75.978 34.44 75.978 33.992C75.994 33.528 76.002 32.928 76.002 32.192C76.018 31.456 76.026 30.528 76.026 29.408H76.578C76.642 30.368 76.818 31.264 77.106 32.096C77.41 32.928 77.866 33.6 78.474 34.112C79.098 34.608 79.922 34.856 80.946 34.856C81.474 34.856 81.97 34.752 82.434 34.544C82.914 34.32 83.306 33.976 83.61 33.512C83.914 33.032 84.066 32.416 84.066 31.664C84.066 31.008 83.906 30.44 83.586 29.96C83.282 29.464 82.85 29.008 82.29 28.592C81.73 28.16 81.074 27.72 80.322 27.272C79.57 26.808 78.866 26.336 78.21 25.856C77.554 25.376 77.026 24.824 76.626 24.2C76.242 23.56 76.05 22.792 76.05 21.896C76.05 20.952 76.258 20.176 76.674 19.568C77.106 18.944 77.666 18.488 78.354 18.2C79.042 17.896 79.778 17.744 80.562 17.744ZM91.8429 16.208V25.184C92.2589 24.096 92.8349 23.344 93.5709 22.928C94.3229 22.512 95.1069 22.304 95.9229 22.304C96.5309 22.304 97.0349 22.384 97.4349 22.544C97.8509 22.704 98.1949 22.928 98.4669 23.216C98.7709 23.536 98.9869 23.936 99.1149 24.416C99.2429 24.896 99.3069 25.544 99.3069 26.36V32.768C99.3069 33.44 99.4429 33.896 99.7149 34.136C100.003 34.376 100.475 34.496 101.131 34.496V35C100.859 34.984 100.443 34.968 99.8829 34.952C99.3229 34.92 98.7789 34.904 98.2509 34.904C97.7229 34.904 97.2029 34.92 96.6909 34.952C96.1949 34.968 95.8189 34.984 95.5629 35V34.496C96.1389 34.496 96.5469 34.376 96.7869 34.136C97.0269 33.896 97.1469 33.44 97.1469 32.768V25.832C97.1469 25.336 97.1069 24.88 97.0269 24.464C96.9469 24.048 96.7629 23.712 96.4749 23.456C96.2029 23.2 95.7789 23.072 95.2029 23.072C94.5469 23.072 93.9629 23.256 93.4509 23.624C92.9549 23.992 92.5629 24.504 92.2749 25.16C91.9869 25.816 91.8429 26.568 91.8429 27.416V32.768C91.8429 33.44 91.9629 33.896 92.2029 34.136C92.4429 34.376 92.8509 34.496 93.4269 34.496V35C93.1709 34.984 92.7869 34.968 92.2749 34.952C91.7789 34.92 91.2669 34.904 90.7389 34.904C90.2109 34.904 89.6669 34.92 89.1069 34.952C88.5469 34.968 88.1309 34.984 87.8589 35V34.496C88.5149 34.496 88.9789 34.376 89.2509 34.136C89.5389 33.896 89.6829 33.44 89.6829 32.768V19.088C89.6829 18.368 89.5549 17.84 89.2989 17.504C89.0429 17.152 88.5629 16.976 87.8589 16.976V16.472C88.3709 16.52 88.8669 16.544 89.3469 16.544C89.8109 16.544 90.2509 16.52 90.6669 16.472C91.0989 16.408 91.4909 16.32 91.8429 16.208ZM108.064 22.304C109.088 22.304 110.008 22.528 110.824 22.976C111.64 23.424 112.288 24.128 112.768 25.088C113.264 26.048 113.512 27.296 113.512 28.832C113.512 30.368 113.264 31.616 112.768 32.576C112.288 33.52 111.64 34.216 110.824 34.664C110.008 35.112 109.088 35.336 108.064 35.336C107.056 35.336 106.136 35.112 105.304 34.664C104.488 34.216 103.832 33.52 103.336 32.576C102.856 31.616 102.616 30.368 102.616 28.832C102.616 27.296 102.856 26.048 103.336 25.088C103.832 24.128 104.488 23.424 105.304 22.976C106.136 22.528 107.056 22.304 108.064 22.304ZM108.064 22.784C107.152 22.784 106.4 23.256 105.808 24.2C105.232 25.144 104.944 26.688 104.944 28.832C104.944 30.976 105.232 32.52 105.808 33.464C106.4 34.392 107.152 34.856 108.064 34.856C108.976 34.856 109.72 34.392 110.296 33.464C110.888 32.52 111.184 30.976 111.184 28.832C111.184 26.688 110.888 25.144 110.296 24.2C109.72 23.256 108.976 22.784 108.064 22.784ZM119.149 22.376V37.112C119.149 37.8 119.349 38.256 119.749 38.48C120.165 38.72 120.733 38.84 121.453 38.84V39.344C121.101 39.328 120.613 39.304 119.989 39.272C119.365 39.256 118.701 39.248 117.997 39.248C117.501 39.248 117.005 39.256 116.509 39.272C116.029 39.304 115.661 39.328 115.405 39.344V38.84C115.981 38.84 116.389 38.736 116.629 38.528C116.869 38.32 116.989 37.928 116.989 37.352V25.256C116.989 24.536 116.861 24.008 116.605 23.672C116.349 23.32 115.869 23.144 115.165 23.144V22.64C115.677 22.688 116.173 22.712 116.653 22.712C117.117 22.712 117.557 22.688 117.973 22.64C118.405 22.576 118.797 22.488 119.149 22.376ZM122.989 22.304C123.837 22.304 124.597 22.536 125.269 23C125.941 23.448 126.469 24.112 126.853 24.992C127.253 25.872 127.453 26.96 127.453 28.256C127.453 29.12 127.349 29.976 127.141 30.824C126.933 31.656 126.605 32.416 126.157 33.104C125.725 33.776 125.157 34.32 124.453 34.736C123.765 35.136 122.933 35.336 121.957 35.336C121.205 35.336 120.549 35.16 119.989 34.808C119.445 34.456 119.077 34.032 118.885 33.536L119.125 33.2C119.349 33.648 119.669 34.024 120.085 34.328C120.517 34.632 121.053 34.784 121.693 34.784C122.589 34.784 123.285 34.504 123.781 33.944C124.277 33.384 124.621 32.64 124.813 31.712C125.021 30.768 125.125 29.728 125.125 28.592C125.125 27.312 125.021 26.264 124.813 25.448C124.605 24.632 124.293 24.024 123.877 23.624C123.461 23.224 122.949 23.024 122.341 23.024C121.557 23.024 120.845 23.352 120.205 24.008C119.565 24.648 119.157 25.624 118.981 26.936L118.693 26.6C118.869 25.24 119.349 24.184 120.133 23.432C120.933 22.68 121.885 22.304 122.989 22.304Z" fill="#FFFCFC"/>
<defs>
<filter id="filter0_d_8_26" x="0" y="0" width="162.815" height="58.5581" filterUnits="userSpaceOnUse" color-interpolation-filters="sRGB">
<feFlood flood-opacity="0" result="BackgroundImageFix"/>
<feColorMatrix in="SourceAlpha" type="matrix" values="0 0 0 0 0 0 0 0 0 0 0 0 0 0 0 0 0 0 127 0" result="hardAlpha"/>
<feOffset dy="4"/>
<feGaussianBlur stdDeviation="2.5"/>
<feComposite in2="hardAlpha" operator="out"/>
<feColorMatrix type="matrix" values="0 0 0 0 0 0 0 0 0 0 0 0 0 0 0 0 0 0 0.2 0"/>
<feBlend mode="normal" in2="BackgroundImageFix" result="effect1_dropShadow_8_26"/>
<feBlend mode="normal" in="SourceGraphic" in2="effect1_dropShadow_8_26" result="shape"/>
</filter>
</defs>
</svg>
